# xmcd
#
# Track frame offsets:
#	150
#	15177
#	26195
#	44750
#	56459
#	66921
#	78065
#	93824
#	110121
#	129311
#	146738
#	163763
#	188309
#	199424
#	215784
#	241501
#	255834
#	276936
#	286792
#	299419
#
# Disc length: 4160 seconds
#
# Revision: 0
# Processed by: cddbd v1.5.1PL0 Copyright (c) Steve Scherf et al.
# Submitted via: EasyCDDAExtractor 7.5.2.1
#
DISCID=1d103e14
DTITLE=Various Artist - Blues On Air
DYEAR=2005
DGENRE=Blues
TTITLE0=Boppin With The Blues - Powder Blues Band
TTITLE1=School Time - Billy Boy Arnold
TTITLE2=747 - Joe Louis Walker
TTITLE3=Boogie Chillin - John Lee Hooker
TTITLE4=Lightnin's Boogie - Lightnin' Hopkins
TTITLE5=Jack and the Beanstalk - Pee Wee Crayton
TTITLE6=Hey Gold Digger - Little Charlie and The Nightcats
TTITLE7=She Puts Me In The Mood - Elvin Bishop
TTITLE8=Judgement Day - Snooky Pryor
TTITLE9=Southbound Train - Aron Burton
TTITLE10=To Be Bone - Randy Garibay
TTITLE11=Ole Red - Long John Hunter
TTITLE12=I Don't Know - Sonny Boy Williamson
TTITLE13=I Guess I Showed Her - Robert Cray
TTITLE14=Honky Tonk - Bill Doggett
TTITLE15=I Don't Want To Be President - Percy Mayfield
TTITLE16=Half Ain't Been Told - Otis Spann
TTITLE17=My Next Door Neighbour - Jerry McCain and His Upstarts
TTITLE18=My Sweet Lovin' Woman - Robert Nighthawk
TTITLE19=Roll Mr Jelly - Saffire
EXTD=
EXTT0=
EXTT1=
EXTT2=
EXTT3=
EXTT4=
EXTT5=
EXTT6=
EXTT7=
EXTT8=
EXTT9=
EXTT10=
EXTT11=
EXTT12=
EXTT13=
EXTT14=
EXTT15=
EXTT16=
EXTT17=
EXTT18=
EXTT19=
PLAYORDER=
